<svg width="529" height="94" viewBox="0 0 529 94" fill="none" xmlns="http://www.w3.org/2000/svg">
<path d="M508.95 0H461.845C452.616 0 445.77 6.86549 443.675 14.9923C443.244 16.6979 443.014 18.4608 443.014 20.2238C443 20.2811 443 20.3385 443 20.3958V46.9547C443 50.9106 443.746 54.5512 445.153 57.6614C448.267 64.6416 454.683 69.0848 463.51 68.9988H509.839C521.608 68.9414 529 62.0473 529 48.431V20.2238C529 8.42777 523.015 0 508.95 0ZM519.025 46.9547C519.025 46.9547 519.025 48.2303 519.025 49.0043C518.81 55.4971 516.255 59.969 507.572 59.969H462.117C456.908 59.1521 453.291 56.0848 452.946 47.1124V46.9547H452.975V20.3384C453.477 14.7056 457.855 9.04408 463.624 8.4851C471.92 8.4851 496.233 8.49945 502.821 8.49945C512.681 8.49945 518.982 10.1047 519.025 21.7861V46.9547Z" fill="white"/>
<path d="M85.8733 48.237C85.8733 62.2653 78.9797 69 66.4066 69H16.0561C10.2031 69 0 63.6265 0 47.9647H9.85621C9.85621 55.5879 13.4403 59.9583 18.9176 59.9583H67.5916C74.384 59.4281 75.8003 54.0546 75.8003 48.0937C75.8003 44.1675 73.9215 38.2351 66.5222 38.1922L38.0808 38.1205C34.0776 38.1635 29.3518 38.2925 24.5972 38.0489C21.7935 37.9056 18.9609 37.619 16.2873 37.1175C6.60453 35.2977 0.0144519 30.5547 0.0144519 18.3175C0.0144519 6.81115 6.46001 2.24014 16.2873 0.635262C17.8048 0.391665 19.3656 0.205386 20.9553 0.0764225H64.6723C67.6494 0.0764225 68.5165 -0.0955282 70.193 0.0764225C81.162 1.20843 86.8271 8.33006 85.9022 20.5672H75.728C75.8148 13.2307 74.4418 8.48767 66.5655 8.48767H19.6257C9.65388 8.48767 9.85621 17.3431 9.85621 19.3492C9.85621 23.1895 13.7582 28.391 20.5651 28.9355H67.2448C72.2018 29.1648 85.8877 32.3172 85.8877 48.2083L85.8733 48.237Z" fill="white"/>
<path d="M432.977 68.2386L434 69H419.051L414.813 65.8826L414.712 65.8107L375.589 36.9638L374.479 36.1449H363.033V69H353V0L363.033 0.0287382H363.105L363.076 27.2236H376.036L419.383 0.172407L419.498 0.0862145H434L397.025 23.273L384.44 31.3754L383.719 31.8351L432.977 68.2386Z" fill="white"/>
<path d="M249 69H236.944C236.814 68.8712 179.97 9.03298 179.97 9.03298C179.45 8.47469 178.526 8.2886 177.876 8.48902V66.051C177.876 67.0674 177.861 68.0266 177.847 68.9571L175.97 69H168.072C168.072 69 168.014 68.8855 168 68.8139V0.0286368L185.37 0C186.481 0.143154 187.102 1.15955 187.983 2.133C202.97 18.5241 223.848 41.1996 239.124 57.2757V0.0286368H248.986C248.986 0.372205 249 69 249 69Z" fill="white"/>
<path d="M326.151 68.9857H278.976C278.79 68.9571 260.826 69.9428 258.115 53.3571C258.072 53.1857 258.043 50.7857 258 50.6V18.6714C258.99 5.39999 267.814 0 275.576 0H328.39C337.414 0.128571 343.986 8.4 343.813 20.3143L334.157 20.4C333.225 13.3714 331.991 8.94284 323.54 8.39998C323.526 8.39998 283.252 8.39998 278.933 8.39998C272.491 8.39998 267.828 12.0143 267.828 18.9857V50.1C267.67 55.5857 273.625 59.8571 279.278 59.8571L323.468 59.8857C330.025 59.9143 333.871 55.9857 333.871 44.4143H298.604V35.1H343.957L344 44.4143V45.5143C343.914 57.7286 340.212 69 326.18 69L326.151 68.9857Z" fill="white"/>
<path d="M104.865 8.69703L104.822 29.3705L159 29.3994V38.6743H104.851L104.879 60.8214C114.473 60.8214 154.146 60.8214 159 60.8214V69.9807C148.022 70.0241 105.165 69.9807 95 69.9807V0.216695L158.914 0L159 0.274494V8.48032L104.865 8.69703Z" fill="white"/>
<path d="M0.384922 92.6428L0.94802 91.4444C1.74213 92.1663 3.11378 92.6861 4.49987 92.6861C6.36242 92.6861 7.15654 91.9642 7.15654 91.0257C7.15654 88.3979 0.630375 90.0583 0.630375 86.0444C0.630375 84.384 1.92983 82.969 4.75976 82.969C6.03034 82.969 7.3298 83.3011 8.22498 83.922L7.71964 85.1492C6.78114 84.5428 5.7127 84.2685 4.75976 84.2685C2.92608 84.2685 2.14641 85.0337 2.14641 85.9722C2.14641 88.6 8.67257 86.954 8.67257 90.9102C8.67257 92.5561 7.34424 93.9711 4.49987 93.9711C2.85389 93.9711 1.23679 93.4224 0.370483 92.6139L0.384922 92.6428Z" fill="white"/>
<path d="M23.3709 92.5273V93.87H15.5453V83.0845H23.1543V84.4273H17.0902V87.7337H22.4902V89.0476H17.0902V92.5273H23.3709Z" fill="white"/>
<path d="M37.6793 93.87L35.3547 90.5636C35.1381 90.5781 34.9071 90.5925 34.6761 90.5925H32.005V93.87H30.4601V83.0845H34.6617C37.4627 83.0845 39.152 84.4995 39.152 86.8385C39.152 88.4989 38.2857 89.6973 36.7841 90.246L39.3397 93.87H37.6649H37.6793ZM37.636 86.8385C37.636 85.2936 36.6108 84.4273 34.6328 84.4273H32.0194V89.2786H34.6328C36.6108 89.2786 37.636 88.3834 37.636 86.8385Z" fill="white"/>
<path d="M55.6407 83.0845L50.9194 93.87H49.3889L44.6387 83.0845H46.2991L50.183 91.9353L54.0958 83.0845H55.6407Z" fill="white"/>
<path d="M61.6328 83.0845H63.1777V93.87H61.6328V83.0845Z" fill="white"/>
<path d="M70.1368 88.4845C70.1368 85.2936 72.5769 82.969 75.8545 82.969C77.5149 82.969 78.9587 83.5321 79.955 84.6439L78.9587 85.6113C78.1213 84.7305 77.1106 84.3262 75.9266 84.3262C73.4866 84.3262 71.6962 86.0877 71.6962 88.4701C71.6962 90.8524 73.501 92.6139 75.9266 92.6139C77.1106 92.6139 78.1357 92.1952 78.9587 91.3144L79.955 92.2818C78.9731 93.3936 77.5293 93.9711 75.84 93.9711C72.5769 93.9711 70.1368 91.6465 70.1368 88.4556V88.4845Z" fill="white"/>
<path d="M86.7555 83.0845H88.3004V93.87H86.7555V83.0845Z" fill="white"/>
<path d="M95.2742 88.4845C95.2742 85.3225 97.7143 82.969 101.021 82.969C104.327 82.969 106.738 85.3081 106.738 88.4845C106.738 91.661 104.298 94 101.021 94C97.7431 94 95.2742 91.6465 95.2742 88.4845ZM105.193 88.4845C105.193 86.1022 103.403 84.3407 101.021 84.3407C98.6383 84.3407 96.8191 86.1022 96.8191 88.4845C96.8191 90.8668 98.6094 92.6283 101.021 92.6283C103.432 92.6283 105.193 90.8668 105.193 88.4845Z" fill="white"/>
<path d="M112.716 92.6428L113.279 91.4444C114.073 92.1663 115.445 92.6861 116.831 92.6861C118.693 92.6861 119.502 91.9642 119.502 91.0257C119.502 88.3979 112.976 90.0583 112.976 86.0444C112.976 84.384 114.275 82.969 117.105 82.969C118.361 82.969 119.675 83.3011 120.57 83.922L120.065 85.1492C119.127 84.5428 118.058 84.2685 117.105 84.2685C115.272 84.2685 114.492 85.0337 114.492 85.9722C114.492 88.6 121.018 86.954 121.018 90.9102C121.018 92.5561 119.69 93.9711 116.845 93.9711C115.199 93.9711 113.582 93.4224 112.716 92.6139V92.6428Z" fill="white"/>
<path d="M144.451 92.5273V93.87H136.626V83.0845H144.235V84.4273H138.171V87.7337H143.571V89.0476H138.171V92.5273H144.451Z" fill="white"/>
<path d="M160.825 83.0845V93.87H159.554L153.086 85.8278V93.87H151.541V83.0845H152.797L159.265 91.1267V83.0845H160.81H160.825Z" fill="white"/>
<path d="M177.429 83.0845H178.974V93.87H177.429V83.0845Z" fill="white"/>
<path d="M196.098 83.0845V93.87H194.827L188.359 85.8278V93.87H186.814V83.0845H188.07L194.538 91.1267V83.0845H196.083H196.098Z" fill="white"/>
<path d="M211.402 88.4123H212.875V92.6139C211.792 93.5235 210.305 93.9855 208.789 93.9855C205.483 93.9855 203.042 91.661 203.042 88.4701C203.042 85.2792 205.483 82.9546 208.818 82.9546C210.522 82.9546 211.98 83.5177 212.962 84.615L212.009 85.5679C211.114 84.7016 210.103 84.3262 208.876 84.3262C206.378 84.3262 204.573 86.0733 204.573 88.4701C204.573 90.8669 206.378 92.6139 208.847 92.6139C209.756 92.6139 210.608 92.4118 211.373 91.9209V88.4123H211.402Z" fill="white"/>
<path d="M228.267 92.5273V93.87H220.441V83.0845H228.05V84.4273H221.986V87.7337H227.386V89.0476H221.986V92.5273H228.267Z" fill="white"/>
<path d="M244.64 83.0845V93.87H243.369L236.901 85.8278V93.87H235.356V83.0845H236.612L243.08 91.1267V83.0845H244.625H244.64Z" fill="white"/>
<path d="M252.48 83.0845H254.025V93.87H252.48V83.0845Z" fill="white"/>
<path d="M269.69 92.5273V93.87H261.865V83.0845H269.474V84.4273H263.41V87.7337H268.81V89.0476H263.41V92.5273H269.69Z" fill="white"/>
<path d="M284.013 93.87L281.688 90.5636C281.472 90.5781 281.241 90.5925 281.01 90.5925H278.339V93.87H276.794V83.0845H280.995C283.796 83.0845 285.486 84.4995 285.486 86.8385C285.486 88.4989 284.619 89.6973 283.118 90.246L285.673 93.87H283.999H284.013ZM283.955 86.8385C283.955 85.2936 282.93 84.4273 280.952 84.4273H278.339V89.2786H280.952C282.93 89.2786 283.955 88.3834 283.955 86.8385Z" fill="white"/>
<path d="M294.322 80.2113H296.199L293.615 82.2182H292.229L294.322 80.2113ZM292.604 83.0845H294.149V93.87H292.604V83.0845Z" fill="white"/>
<path d="M308.862 91.1701H303.13L301.946 93.87H300.357L305.238 83.0845H306.768L311.663 93.87H310.046L308.862 91.1701ZM308.327 89.9428L306.003 84.6583L303.678 89.9428H308.327Z" fill="white"/>
<path d="M330.765 90.1449V93.87H329.234V90.1161L324.946 83.099H326.592L330.043 88.7877L333.508 83.099H335.039L330.765 90.1594V90.1449Z" fill="white"/>
<path d="M349.102 88.4845C349.102 85.2936 351.542 82.969 354.819 82.969C356.48 82.969 357.923 83.5321 358.92 84.6439L357.923 85.6113C357.086 84.7305 356.075 84.3262 354.891 84.3262C352.451 84.3262 350.661 86.0877 350.661 88.4701C350.661 90.8524 352.466 92.6139 354.891 92.6139C356.075 92.6139 357.1 92.1952 357.923 91.3144L358.92 92.2818C357.938 93.3936 356.494 93.9711 354.805 93.9711C351.542 93.9711 349.102 91.6465 349.102 88.4556V88.4845Z" fill="white"/>
<path d="M364.608 88.4845C364.608 85.3225 367.048 82.969 370.355 82.969C373.661 82.969 376.073 85.3081 376.073 88.4845C376.073 91.661 373.632 94 370.355 94C367.077 94 364.608 91.6465 364.608 88.4845ZM374.528 88.4845C374.528 86.1022 372.737 84.3407 370.355 84.3407C367.973 84.3407 366.153 86.1022 366.153 88.4845C366.153 90.8668 367.944 92.6283 370.355 92.6283C372.766 92.6283 374.528 90.8668 374.528 88.4845Z" fill="white"/>
<path d="M392.301 83.0845V93.87H391.031L384.562 85.8278V93.87H383.017V83.0845H384.273L390.742 91.1267V83.0845H392.287H392.301Z" fill="white"/>
<path d="M399.159 92.6428L399.723 91.4444C400.517 92.1663 401.888 92.6861 403.274 92.6861C405.137 92.6861 405.931 91.9642 405.931 91.0257C405.931 88.3979 399.405 90.0583 399.405 86.0444C399.405 84.384 400.704 82.969 403.534 82.969C404.79 82.969 406.104 83.3011 407 83.922L406.494 85.1492C405.556 84.5428 404.487 84.2685 403.534 84.2685C401.701 84.2685 400.921 85.0337 400.921 85.9722C400.921 88.6 407.447 86.954 407.447 90.9102C407.447 92.5561 406.119 93.9711 403.274 93.9711C401.628 93.9711 400.011 93.4224 399.145 92.6139L399.159 92.6428Z" fill="white"/>
<path d="M416.312 84.4273H412.616V83.0845H421.525V84.4273H417.828V93.87H416.298V84.4273H416.312Z" fill="white"/>
<path d="M435.025 93.87L432.7 90.5636C432.483 90.5781 432.252 90.5925 432.021 90.5925H429.365V93.87H427.82V83.0845H432.021C434.822 83.0845 436.526 84.4995 436.526 86.8385C436.526 88.4989 435.66 89.6973 434.158 90.246L436.714 93.87H435.039H435.025ZM434.981 86.8385C434.981 85.2936 433.956 84.4273 431.978 84.4273H429.365V89.2786H431.978C433.956 89.2786 434.981 88.3834 434.981 86.8385Z" fill="white"/>
<path d="M443.543 89.2209V83.0845H445.088V89.1487C445.088 91.531 446.185 92.6139 448.12 92.6139C450.055 92.6139 451.166 91.531 451.166 89.1487V83.0845H452.654V89.2209C452.654 92.354 450.95 94 448.091 94C445.232 94 443.529 92.354 443.529 89.2209H443.543Z" fill="white"/>
<path d="M459.541 88.4845C459.541 85.2936 461.981 82.969 465.259 82.969C466.919 82.969 468.363 83.5321 469.359 84.6439L468.363 85.6113C467.525 84.7305 466.515 84.3262 465.331 84.3262C462.891 84.3262 461.1 86.0877 461.1 88.4701C461.1 90.8524 462.905 92.6139 465.331 92.6139C466.515 92.6139 467.54 92.1952 468.363 91.3144L469.359 92.2818C468.377 93.3936 466.933 93.9711 465.244 93.9711C461.981 93.9711 459.541 91.6465 459.541 88.4556V88.4845Z" fill="white"/>
<path d="M475.062 88.4845C475.062 85.2936 477.502 82.969 480.78 82.969C482.44 82.969 483.884 83.5321 484.88 84.6439L483.884 85.6113C483.047 84.7305 482.036 84.3262 480.852 84.3262C478.412 84.3262 476.622 86.0877 476.622 88.4701C476.622 90.8524 478.426 92.6139 480.852 92.6139C482.036 92.6139 483.061 92.1952 483.884 91.3144L484.88 92.2818C483.899 93.3936 482.455 93.9711 480.765 93.9711C477.502 93.9711 475.062 91.6465 475.062 88.4556V88.4845Z" fill="white"/>
<path d="M491.681 83.0845H493.226V93.87H491.681V83.0845Z" fill="white"/>
<path d="M500.199 88.4845C500.199 85.3225 502.64 82.969 505.946 82.969C509.252 82.969 511.664 85.3081 511.664 88.4845C511.664 91.661 509.223 94 505.946 94C502.668 94 500.199 91.6465 500.199 88.4845ZM510.119 88.4845C510.119 86.1022 508.328 84.3407 505.946 84.3407C503.564 84.3407 501.744 86.1022 501.744 88.4845C501.744 90.8668 503.535 92.6283 505.946 92.6283C508.357 92.6283 510.119 90.8668 510.119 88.4845ZM506.884 80.2113H508.761L506.177 82.2182H504.791L506.884 80.2113Z" fill="white"/>
<path d="M527.892 83.0845V93.87H526.622L520.153 85.8278V93.87H518.608V83.0845H519.865L526.333 91.1267V83.0845H527.878H527.892Z" fill="white"/>
<path d="M353 51.2894L363 45V69H353V51.2894Z" fill="white"/>
<path d="M432.984 68.242L434 69H419.156L414.948 65.8964L414.848 65.8249L376 37.1059L384.073 32L432.984 68.242Z" fill="white"/>
</svg>
