<svg width="530" height="95" viewBox="0 0 530 95" fill="none" xmlns="http://www.w3.org/2000/svg">
<path d="M509.95 0H462.845C453.616 0 446.77 6.96499 444.675 15.2095C444.244 16.9399 444.014 18.7284 444.014 20.5169C444 20.575 444 20.6332 444 20.6914V47.6352C444 51.6485 444.746 55.3418 446.153 58.4971C449.267 65.5784 455.683 70.086 464.51 69.9988H510.839C522.608 69.9406 530 62.9465 530 49.1329V20.5169C530 8.54991 524.015 0 509.95 0ZM520.025 47.6352C520.025 47.6352 520.025 48.9293 520.025 49.7145C519.81 56.3015 517.255 60.8382 508.572 60.8382H463.117C457.908 60.0093 454.291 56.8976 453.946 47.7952V47.6352H453.975V20.6332C454.477 14.9187 458.855 9.17516 464.624 8.60807C472.92 8.60807 497.233 8.62263 503.821 8.62263C513.681 8.62263 519.982 10.2512 520.025 22.1018V47.6352Z" fill="black"/>
<path d="M85.8733 48.936C85.8733 63.1677 78.9797 70 66.4066 70H16.0561C10.2031 70 0 64.5487 0 48.6598H9.85621C9.85621 56.3935 13.4403 60.8272 18.9176 60.8272H67.5916C74.384 60.2894 75.8003 54.838 75.8003 48.7907C75.8003 44.8076 73.9215 38.7893 66.5222 38.7457L38.0808 38.673C34.0776 38.7166 29.3518 38.8474 24.5972 38.6003C21.7935 38.4549 18.9609 38.1642 16.2873 37.6554C6.60453 35.8092 0.0144519 30.9975 0.0144519 18.583C0.0144519 6.90987 6.46001 2.2726 16.2873 0.644468C17.8048 0.397341 19.3656 0.208362 20.9553 0.0775301H64.6723C67.6494 0.0775301 68.5165 -0.0969127 70.193 0.0775301C81.162 1.22595 86.8271 8.45079 85.9022 20.8653H75.728C75.8148 13.4224 74.4418 8.61068 66.5655 8.61068H19.6257C9.65388 8.61068 9.85621 17.5945 9.85621 19.6297C9.85621 23.5255 13.7582 28.8024 20.5651 29.3548H67.2448C72.2018 29.5874 85.8877 32.7855 85.8877 48.907L85.8733 48.936Z" fill="black"/>
<path d="M433.977 69.2275L435 70H420.051L415.813 66.8374L415.712 66.7645L376.589 37.4995L375.479 36.6687H364.033V70H354V0L364.033 0.0291547H364.105L364.076 27.6182H377.036L420.383 0.174906L420.498 0.087464H435L398.025 23.6103L385.44 31.8301L384.719 32.2965L433.977 69.2275Z" fill="black"/>
<path d="M250 70H237.944C237.814 69.8693 180.97 9.1639 180.97 9.1639C180.45 8.59751 179.526 8.40873 178.876 8.61204V67.0083C178.876 68.0394 178.861 69.0124 178.847 69.9564L176.97 70H169.072C169.072 70 169.014 69.8838 169 69.8112V0.0290518L186.37 0C187.481 0.145228 188.102 1.17636 188.983 2.16391C203.97 18.7925 224.848 41.7967 240.124 58.1058V0.0290518H249.986C249.986 0.3776 250 70 250 70Z" fill="black"/>
<path d="M327.151 69.9855H279.976C279.79 69.9565 261.826 70.9565 259.115 54.1304C259.072 53.9565 259.043 51.5217 259 51.3333V18.942C259.99 5.47825 268.814 0 276.576 0H329.39C338.414 0.130435 344.986 8.52174 344.813 20.6087L335.157 20.6956C334.225 13.5652 332.991 9.07245 324.54 8.52172C324.526 8.52172 284.252 8.52172 279.933 8.52172C273.491 8.52172 268.828 12.1884 268.828 19.2609V50.8261C268.67 56.3913 274.625 60.7246 280.278 60.7246L324.468 60.7536C331.025 60.7826 334.871 56.7971 334.871 45.058H299.604V35.6087H344.957L345 45.058V46.1739C344.914 58.5652 341.212 70 327.18 70L327.151 69.9855Z" fill="black"/>
<path d="M105.019 8.69703L104.975 29.3705L160 29.3994V38.6743H105.004L105.033 60.8214C114.777 60.8214 155.07 60.8214 160 60.8214V69.9807C148.85 70.0241 105.323 69.9807 95 69.9807V0.216695L159.913 0L160 0.274494V8.48032L105.019 8.69703Z" fill="black"/>
<path d="M1.04007 92.9798L1.60317 91.7814C2.39728 92.5033 3.76893 93.0231 5.15502 93.0231C7.01758 93.0231 7.81169 92.3011 7.81169 91.3626C7.81169 88.7348 1.28553 90.3953 1.28553 86.3814C1.28553 84.721 2.58498 83.306 5.41491 83.306C6.68549 83.306 7.98495 83.6381 8.88013 84.2589L8.37479 85.4862C7.43629 84.8798 6.36785 84.6055 5.41491 84.6055C3.58123 84.6055 2.80156 85.3707 2.80156 86.3092C2.80156 88.937 9.32772 87.291 9.32772 91.2471C9.32772 92.8931 7.99939 94.3081 5.15502 94.3081C3.50904 94.3081 1.89194 93.7594 1.02563 92.9509L1.04007 92.9798Z" fill="black"/>
<path d="M24.026 92.8642V94.207H16.2004V83.4215H23.8095V84.7643H17.7453V88.0707H23.1453V89.3846H17.7453V92.8642H24.026Z" fill="black"/>
<path d="M38.3345 94.207L36.0099 90.9006C35.7934 90.9151 35.5624 90.9295 35.3313 90.9295H32.6602V94.207H31.1153V83.4215H35.3169C38.118 83.4215 39.8073 84.8365 39.8073 87.1755C39.8073 88.8359 38.9409 90.0343 37.4393 90.583L39.9949 94.207H38.3201H38.3345ZM38.2912 87.1755C38.2912 85.6306 37.2661 84.7643 35.288 84.7643H32.6747V89.6156H35.288C37.2661 89.6156 38.2912 88.7204 38.2912 87.1755Z" fill="black"/>
<path d="M56.2958 83.4215L51.5745 94.207H50.044L45.2938 83.4215H46.9542L50.8381 92.2723L54.7509 83.4215H56.2958Z" fill="black"/>
<path d="M62.2878 83.4215H63.8327V94.207H62.2878V83.4215Z" fill="black"/>
<path d="M70.7921 88.8215C70.7921 85.6306 73.2321 83.306 76.5097 83.306C78.1701 83.306 79.6139 83.8691 80.6102 84.9809L79.6139 85.9482C78.7765 85.0675 77.7658 84.6632 76.5819 84.6632C74.1418 84.6632 72.3514 86.4247 72.3514 88.8071C72.3514 91.1894 74.1562 92.9509 76.5819 92.9509C77.7658 92.9509 78.7909 92.5322 79.6139 91.6514L80.6102 92.6188C79.6284 93.7306 78.1845 94.3081 76.4952 94.3081C73.2321 94.3081 70.7921 91.9835 70.7921 88.7926V88.8215Z" fill="black"/>
<path d="M87.4107 83.4215H88.9556V94.207H87.4107V83.4215Z" fill="black"/>
<path d="M95.9293 88.8215C95.9293 85.6595 98.3694 83.306 101.676 83.306C104.982 83.306 107.393 85.645 107.393 88.8215C107.393 91.9979 104.953 94.3369 101.676 94.3369C98.3983 94.3369 95.9293 91.9835 95.9293 88.8215ZM105.849 88.8215C105.849 86.4391 104.058 84.6777 101.676 84.6777C99.2935 84.6777 97.4742 86.4391 97.4742 88.8215C97.4742 91.2038 99.2646 92.9653 101.676 92.9653C104.087 92.9653 105.849 91.2038 105.849 88.8215Z" fill="black"/>
<path d="M113.371 92.9798L113.934 91.7814C114.728 92.5033 116.1 93.0231 117.486 93.0231C119.348 93.0231 120.157 92.3011 120.157 91.3626C120.157 88.7348 113.631 90.3953 113.631 86.3814C113.631 84.721 114.93 83.306 117.76 83.306C119.016 83.306 120.33 83.6381 121.225 84.2589L120.72 85.4862C119.782 84.8798 118.713 84.6055 117.76 84.6055C115.927 84.6055 115.147 85.3707 115.147 86.3092C115.147 88.937 121.673 87.291 121.673 91.2471C121.673 92.8931 120.345 94.3081 117.5 94.3081C115.854 94.3081 114.237 93.7594 113.371 92.9509V92.9798Z" fill="black"/>
<path d="M145.107 92.8642V94.207H137.281V83.4215H144.89V84.7643H138.826V88.0707H144.226V89.3846H138.826V92.8642H145.107Z" fill="black"/>
<path d="M161.48 83.4215V94.207H160.209L153.741 86.1648V94.207H152.196V83.4215H153.452L159.92 91.4637V83.4215H161.465H161.48Z" fill="black"/>
<path d="M178.084 83.4215H179.629V94.207H178.084V83.4215Z" fill="black"/>
<path d="M196.753 83.4215V94.207H195.482L189.014 86.1648V94.207H187.469V83.4215H188.725L195.193 91.4637V83.4215H196.738H196.753Z" fill="black"/>
<path d="M212.057 88.7493H213.53V92.9509C212.447 93.8605 210.96 94.3225 209.444 94.3225C206.138 94.3225 203.698 91.9979 203.698 88.807C203.698 85.6162 206.138 83.2916 209.473 83.2916C211.177 83.2916 212.635 83.8547 213.617 84.952L212.664 85.9049C211.769 85.0386 210.758 84.6632 209.531 84.6632C207.033 84.6632 205.228 86.4103 205.228 88.807C205.228 91.2038 207.033 92.9509 209.502 92.9509C210.412 92.9509 211.263 92.7487 212.029 92.2578V88.7493H212.057Z" fill="black"/>
<path d="M228.922 92.8642V94.207H221.096V83.4215H228.705V84.7643H222.641V88.0707H228.041V89.3846H222.641V92.8642H228.922Z" fill="black"/>
<path d="M245.295 83.4215V94.207H244.024L237.556 86.1648V94.207H236.011V83.4215H237.267L243.735 91.4637V83.4215H245.28H245.295Z" fill="black"/>
<path d="M253.135 83.4215H254.68V94.207H253.135V83.4215Z" fill="black"/>
<path d="M270.345 92.8642V94.207H262.52V83.4215H270.129V84.7643H264.065V88.0707H269.465V89.3846H264.065V92.8642H270.345Z" fill="black"/>
<path d="M284.668 94.207L282.344 90.9006C282.127 90.9151 281.896 90.9295 281.665 90.9295H278.994V94.207H277.449V83.4215H281.651C284.452 83.4215 286.141 84.8365 286.141 87.1755C286.141 88.8359 285.275 90.0343 283.773 90.583L286.329 94.207H284.654H284.668ZM284.611 87.1755C284.611 85.6306 283.585 84.7643 281.607 84.7643H278.994V89.6156H281.607C283.585 89.6156 284.611 88.7204 284.611 87.1755Z" fill="black"/>
<path d="M294.977 80.5483H296.854L294.27 82.5552H292.884L294.977 80.5483ZM293.259 83.4215H294.804V94.207H293.259V83.4215Z" fill="black"/>
<path d="M309.517 91.507H303.785L302.601 94.207H301.013L305.893 83.4215H307.423L312.318 94.207H310.701L309.517 91.507ZM308.983 90.2798L306.658 84.9953L304.333 90.2798H308.983Z" fill="black"/>
<path d="M331.42 90.4819V94.207H329.889V90.453L325.601 83.436H327.247L330.698 89.1247L334.163 83.436H335.694L331.42 90.4964V90.4819Z" fill="black"/>
<path d="M349.757 88.8215C349.757 85.6306 352.197 83.306 355.474 83.306C357.135 83.306 358.579 83.8691 359.575 84.9809L358.579 85.9482C357.741 85.0675 356.73 84.6632 355.547 84.6632C353.106 84.6632 351.316 86.4247 351.316 88.8071C351.316 91.1894 353.121 92.9509 355.547 92.9509C356.73 92.9509 357.756 92.5322 358.579 91.6514L359.575 92.6188C358.593 93.7306 357.149 94.3081 355.46 94.3081C352.197 94.3081 349.757 91.9835 349.757 88.7926V88.8215Z" fill="black"/>
<path d="M365.264 88.8215C365.264 85.6595 367.704 83.306 371.01 83.306C374.316 83.306 376.728 85.645 376.728 88.8215C376.728 91.9979 374.288 94.3369 371.01 94.3369C367.733 94.3369 365.264 91.9835 365.264 88.8215ZM375.183 88.8215C375.183 86.4391 373.392 84.6777 371.01 84.6777C368.628 84.6777 366.808 86.4391 366.808 88.8215C366.808 91.2038 368.599 92.9653 371.01 92.9653C373.421 92.9653 375.183 91.2038 375.183 88.8215Z" fill="black"/>
<path d="M392.956 83.4215V94.207H391.686L385.217 86.1648V94.207H383.672V83.4215H384.929L391.397 91.4637V83.4215H392.942H392.956Z" fill="black"/>
<path d="M399.815 92.9798L400.378 91.7814C401.172 92.5033 402.543 93.0231 403.93 93.0231C405.792 93.0231 406.586 92.3011 406.586 91.3626C406.586 88.7348 400.06 90.3953 400.06 86.3814C400.06 84.721 401.36 83.306 404.189 83.306C405.446 83.306 406.759 83.6381 407.655 84.2589L407.149 85.4862C406.211 84.8798 405.142 84.6055 404.189 84.6055C402.356 84.6055 401.576 85.3707 401.576 86.3092C401.576 88.937 408.102 87.291 408.102 91.2471C408.102 92.8931 406.774 94.3081 403.93 94.3081C402.284 94.3081 400.666 93.7594 399.8 92.9509L399.815 92.9798Z" fill="black"/>
<path d="M416.967 84.7643H413.271V83.4215H422.18V84.7643H418.483V94.207H416.953V84.7643H416.967Z" fill="black"/>
<path d="M435.68 94.207L433.355 90.9006C433.138 90.9151 432.908 90.9295 432.676 90.9295H430.02V94.207H428.475V83.4215H432.676C435.478 83.4215 437.181 84.8365 437.181 87.1755C437.181 88.8359 436.315 90.0343 434.813 90.583L437.369 94.207H435.694H435.68ZM435.636 87.1755C435.636 85.6306 434.611 84.7643 432.633 84.7643H430.02V89.6156H432.633C434.611 89.6156 435.636 88.7204 435.636 87.1755Z" fill="black"/>
<path d="M444.198 89.5578V83.4215H445.743V89.4857C445.743 91.868 446.841 92.9509 448.775 92.9509C450.71 92.9509 451.822 91.868 451.822 89.4857V83.4215H453.309V89.5578C453.309 92.691 451.605 94.3369 448.746 94.3369C445.888 94.3369 444.184 92.691 444.184 89.5578H444.198Z" fill="black"/>
<path d="M460.196 88.8215C460.196 85.6306 462.636 83.306 465.914 83.306C467.574 83.306 469.018 83.8691 470.014 84.9809L469.018 85.9482C468.18 85.0675 467.17 84.6632 465.986 84.6632C463.546 84.6632 461.755 86.4247 461.755 88.8071C461.755 91.1894 463.56 92.9509 465.986 92.9509C467.17 92.9509 468.195 92.5322 469.018 91.6514L470.014 92.6188C469.032 93.7306 467.588 94.3081 465.899 94.3081C462.636 94.3081 460.196 91.9835 460.196 88.7926V88.8215Z" fill="black"/>
<path d="M475.717 88.8215C475.717 85.6306 478.157 83.306 481.435 83.306C483.095 83.306 484.539 83.8691 485.536 84.9809L484.539 85.9482C483.702 85.0675 482.691 84.6632 481.507 84.6632C479.067 84.6632 477.277 86.4247 477.277 88.8071C477.277 91.1894 479.082 92.9509 481.507 92.9509C482.691 92.9509 483.716 92.5322 484.539 91.6514L485.536 92.6188C484.554 93.7306 483.11 94.3081 481.421 94.3081C478.157 94.3081 475.717 91.9835 475.717 88.7926V88.8215Z" fill="black"/>
<path d="M492.336 83.4215H493.881V94.207H492.336V83.4215Z" fill="black"/>
<path d="M500.855 88.8215C500.855 85.6595 503.295 83.306 506.601 83.306C509.908 83.306 512.319 85.645 512.319 88.8215C512.319 91.9979 509.879 94.3369 506.601 94.3369C503.324 94.3369 500.855 91.9835 500.855 88.8215ZM510.774 88.8215C510.774 86.4391 508.983 84.6777 506.601 84.6777C504.219 84.6777 502.4 86.4391 502.4 88.8215C502.4 91.2038 504.19 92.9653 506.601 92.9653C509.012 92.9653 510.774 91.2038 510.774 88.8215ZM507.54 80.5483H509.417L506.832 82.5552H505.446L507.54 80.5483Z" fill="black"/>
<path d="M528.548 83.4215V94.207H527.277L520.809 86.1648V94.207H519.264V83.4215H520.52L526.988 91.4637V83.4215H528.533H528.548Z" fill="black"/>
<path d="M354 51.5515L364 45V70H354V51.5515Z" fill="black"/>
<path d="M433.966 69.2215L435 70H419.901L415.62 66.8125L415.518 66.7391L376 37.2439L384.212 32L433.966 69.2215Z" fill="black"/>
</svg>
