<svg width="529" height="95" viewBox="0 0 529 95" fill="none" xmlns="http://www.w3.org/2000/svg">
<path d="M508.95 0H461.845C452.616 0 445.77 6.86549 443.675 14.9923C443.244 16.6979 443.014 18.4608 443.014 20.2238C443 20.2811 443 20.3385 443 20.3958V46.9547C443 50.9106 443.746 54.5512 445.153 57.6614C448.267 64.6416 454.683 69.0848 463.51 68.9988H509.839C521.608 68.9414 529 62.0473 529 48.431V20.2238C529 8.42777 523.015 0 508.95 0ZM519.025 46.9547C519.025 46.9547 519.025 48.2303 519.025 49.0043C518.81 55.4971 516.255 59.969 507.572 59.969H462.117C456.908 59.1521 453.291 56.0848 452.946 47.1124V46.9547H452.975V20.3384C453.477 14.7056 457.855 9.04408 463.624 8.4851C471.92 8.4851 496.233 8.49945 502.821 8.49945C512.681 8.49945 518.982 10.1047 519.025 21.7861V46.9547Z" fill="black"/>
<path d="M85.8733 48.237C85.8733 62.2653 78.9797 69 66.4066 69H16.0561C10.2031 69 0 63.6265 0 47.9647H9.85621C9.85621 55.5879 13.4403 59.9583 18.9176 59.9583H67.5916C74.384 59.4281 75.8003 54.0546 75.8003 48.0937C75.8003 44.1675 73.9215 38.2351 66.5222 38.1922L38.0808 38.1205C34.0776 38.1635 29.3518 38.2925 24.5972 38.0489C21.7935 37.9056 18.9609 37.619 16.2873 37.1175C6.60453 35.2977 0.0144519 30.5547 0.0144519 18.3175C0.0144519 6.81115 6.46001 2.24014 16.2873 0.635262C17.8048 0.391665 19.3656 0.205386 20.9553 0.0764225H64.6723C67.6494 0.0764225 68.5165 -0.0955282 70.193 0.0764225C81.162 1.20843 86.8271 8.33006 85.9022 20.5672H75.728C75.8148 13.2307 74.4418 8.48767 66.5655 8.48767H19.6257C9.65388 8.48767 9.85621 17.3431 9.85621 19.3492C9.85621 23.1895 13.7582 28.391 20.5651 28.9355H67.2448C72.2018 29.1648 85.8877 32.3172 85.8877 48.2083L85.8733 48.237Z" fill="black"/>
<path d="M432.977 68.2386L434 69H419.051L414.813 65.8826L414.712 65.8107L375.589 36.9638L374.479 36.1449H363.033V69H353V0L363.033 0.0287382H363.105L363.076 27.2236H376.036L419.383 0.172407L419.498 0.0862145H434L397.025 23.273L384.44 31.3754L383.719 31.8351L432.977 68.2386Z" fill="url(#paint0_linear_4_756)"/>
<path d="M249 70H236.944C236.814 69.8693 179.97 9.1639 179.97 9.1639C179.45 8.59751 178.526 8.40873 177.876 8.61204V67.0083C177.876 68.0394 177.861 69.0124 177.847 69.9564L175.97 70H168.072C168.072 70 168.014 69.8838 168 69.8112V0.0290518L185.37 0C186.481 0.145228 187.102 1.17636 187.983 2.16391C202.97 18.7925 223.848 41.7967 239.124 58.1058V0.0290518H248.986C248.986 0.3776 249 70 249 70Z" fill="black"/>
<path d="M326.151 69.9855H278.976C278.79 69.9565 260.826 70.9565 258.115 54.1304C258.072 53.9565 258.043 51.5217 258 51.3333V18.942C258.99 5.47825 267.814 0 275.576 0H328.39C337.414 0.130435 343.986 8.52174 343.813 20.6087L334.157 20.6956C333.225 13.5652 331.991 9.07245 323.54 8.52172C323.526 8.52172 283.252 8.52172 278.933 8.52172C272.491 8.52172 267.828 12.1884 267.828 19.2609V50.8261C267.67 56.3913 273.625 60.7246 279.278 60.7246L323.468 60.7536C330.025 60.7826 333.871 56.7971 333.871 45.058H298.604V35.6087H343.957L344 45.058V46.1739C343.914 58.5652 340.212 70 326.18 70L326.151 69.9855Z" fill="url(#paint1_linear_4_756)"/>
<path d="M104.019 8.69703L103.975 29.3705L159 29.3994V38.6743H104.004L104.033 60.8214C113.777 60.8214 154.07 60.8214 159 60.8214V69.9807C147.85 70.0241 104.323 69.9807 94 69.9807V0.216695L158.913 0L159 0.274494V8.48032L104.019 8.69703Z" fill="black"/>
<path d="M0.259281 92.7622L0.822379 91.5638C1.61649 92.2858 2.98814 92.8055 4.37423 92.8055C6.23678 92.8055 7.0309 92.0836 7.0309 91.1451C7.0309 88.5173 0.504734 90.1777 0.504734 86.1639C0.504734 84.5034 1.80419 83.0885 4.63412 83.0885C5.9047 83.0885 7.20416 83.4206 8.09934 84.0414L7.594 85.2687C6.6555 84.6623 5.58706 84.3879 4.63412 84.3879C2.80044 84.3879 2.02077 85.1532 2.02077 86.0917C2.02077 88.7195 8.54693 87.0735 8.54693 91.0296C8.54693 92.6756 7.2186 94.0906 4.37423 94.0906C2.72825 94.0906 1.11115 93.5419 0.244843 92.7333L0.259281 92.7622Z" fill="black"/>
<path d="M23.2452 92.6467V93.9895H15.4196V83.204H23.0287V84.5468H16.9645V87.8532H22.3645V89.1671H16.9645V92.6467H23.2452Z" fill="black"/>
<path d="M37.5537 93.9895L35.2292 90.6831C35.0126 90.6975 34.7816 90.712 34.5506 90.712H31.8794V93.9895H30.3345V83.204H34.5361C37.3372 83.204 39.0265 84.619 39.0265 86.958C39.0265 88.6184 38.1602 89.8168 36.6586 90.3654L39.2142 93.9895H37.5393H37.5537ZM37.5104 86.958C37.5104 85.4131 36.4853 84.5468 34.5072 84.5468H31.8939V89.3981H34.5072C36.4853 89.3981 37.5104 88.5029 37.5104 86.958Z" fill="black"/>
<path d="M55.515 83.204L50.7937 93.9895H49.2632L44.513 83.204H46.1734L50.0573 92.0547L53.9701 83.204H55.515Z" fill="black"/>
<path d="M61.507 83.204H63.0519V93.9895H61.507V83.204Z" fill="black"/>
<path d="M70.0112 88.604C70.0112 85.4131 72.4513 83.0885 75.7288 83.0885C77.3893 83.0885 78.8331 83.6516 79.8294 84.7633L78.8331 85.7307C77.9957 84.85 76.985 84.4457 75.801 84.4457C73.3609 84.4457 71.5706 86.2072 71.5706 88.5895C71.5706 90.9719 73.3754 92.7333 75.801 92.7333C76.985 92.7333 78.0101 92.3146 78.8331 91.4339L79.8294 92.4013C78.8475 93.513 77.4037 94.0906 75.7144 94.0906C72.4513 94.0906 70.0112 91.766 70.0112 88.5751V88.604Z" fill="black"/>
<path d="M86.6299 83.204H88.1748V93.9895H86.6299V83.204Z" fill="black"/>
<path d="M95.1485 88.604C95.1485 85.4419 97.5886 83.0885 100.895 83.0885C104.201 83.0885 106.613 85.4275 106.613 88.604C106.613 91.7804 104.172 94.1194 100.895 94.1194C97.6175 94.1194 95.1485 91.766 95.1485 88.604ZM105.068 88.604C105.068 86.2216 103.277 84.4601 100.895 84.4601C98.5126 84.4601 96.6934 86.2216 96.6934 88.604C96.6934 90.9863 98.4838 92.7478 100.895 92.7478C103.306 92.7478 105.068 90.9863 105.068 88.604Z" fill="black"/>
<path d="M112.59 92.7622L113.153 91.5638C113.947 92.2858 115.319 92.8055 116.705 92.8055C118.568 92.8055 119.376 92.0836 119.376 91.1451C119.376 88.5173 112.85 90.1777 112.85 86.1639C112.85 84.5034 114.149 83.0885 116.979 83.0885C118.236 83.0885 119.549 83.4206 120.445 84.0414L119.939 85.2687C119.001 84.6623 117.932 84.3879 116.979 84.3879C115.146 84.3879 114.366 85.1532 114.366 86.0917C114.366 88.7195 120.892 87.0735 120.892 91.0296C120.892 92.6756 119.564 94.0906 116.72 94.0906C115.074 94.0906 113.456 93.5419 112.59 92.7333V92.7622Z" fill="black"/>
<path d="M144.326 92.6467V93.9895H136.5V83.204H144.109V84.5468H138.045V87.8532H143.445V89.1671H138.045V92.6467H144.326Z" fill="black"/>
<path d="M160.699 83.204V93.9895H159.428L152.96 85.9473V93.9895H151.415V83.204H152.671L159.14 91.2462V83.204H160.685H160.699Z" fill="black"/>
<path d="M177.303 83.204H178.848V93.9895H177.303V83.204Z" fill="black"/>
<path d="M195.972 83.204V93.9895H194.701L188.233 85.9473V93.9895H186.688V83.204H187.944L194.413 91.2462V83.204H195.958H195.972Z" fill="black"/>
<path d="M211.277 88.5318H212.749V92.7333C211.667 93.643 210.179 94.105 208.663 94.105C205.357 94.105 202.917 91.7804 202.917 88.5895C202.917 85.3986 205.357 83.074 208.692 83.074C210.396 83.074 211.854 83.6371 212.836 84.7344L211.883 85.6874C210.988 84.8211 209.977 84.4457 208.75 84.4457C206.252 84.4457 204.447 86.1927 204.447 88.5895C204.447 90.9863 206.252 92.7333 208.721 92.7333C209.631 92.7333 210.483 92.5312 211.248 92.0403V88.5318H211.277Z" fill="black"/>
<path d="M228.141 92.6467V93.9895H220.315V83.204H227.924V84.5468H221.86V87.8532H227.26V89.1671H221.86V92.6467H228.141Z" fill="black"/>
<path d="M244.514 83.204V93.9895H243.243L236.775 85.9473V93.9895H235.23V83.204H236.486L242.955 91.2462V83.204H244.499H244.514Z" fill="black"/>
<path d="M252.354 83.204H253.899V93.9895H252.354V83.204Z" fill="black"/>
<path d="M269.565 92.6467V93.9895H261.739V83.204H269.348V84.5468H263.284V87.8532H268.684V89.1671H263.284V92.6467H269.565Z" fill="black"/>
<path d="M283.887 93.9895L281.563 90.6831C281.346 90.6975 281.115 90.712 280.884 90.712H278.213V93.9895H276.668V83.204H280.87C283.671 83.204 285.36 84.619 285.36 86.958C285.36 88.6184 284.494 89.8168 282.992 90.3654L285.548 93.9895H283.873H283.887ZM283.83 86.958C283.83 85.4131 282.805 84.5468 280.827 84.5468H278.213V89.3981H280.827C282.805 89.3981 283.83 88.5029 283.83 86.958Z" fill="black"/>
<path d="M294.196 80.3307H296.073L293.489 82.3377H292.103L294.196 80.3307ZM292.478 83.204H294.023V93.9895H292.478V83.204Z" fill="black"/>
<path d="M308.736 91.2895H303.004L301.82 93.9895H300.232L305.112 83.204H306.642L311.537 93.9895H309.92L308.736 91.2895ZM308.202 90.0622L305.877 84.7778L303.553 90.0622H308.202Z" fill="black"/>
<path d="M330.639 90.2644V93.9895H329.109V90.2355L324.82 83.2184H326.466L329.917 88.9072L333.382 83.2184H334.913L330.639 90.2788V90.2644Z" fill="black"/>
<path d="M348.976 88.604C348.976 85.4131 351.416 83.0885 354.693 83.0885C356.354 83.0885 357.798 83.6516 358.794 84.7633L357.798 85.7307C356.96 84.85 355.95 84.4457 354.766 84.4457C352.326 84.4457 350.535 86.2072 350.535 88.5895C350.535 90.9719 352.34 92.7333 354.766 92.7333C355.95 92.7333 356.975 92.3146 357.798 91.4339L358.794 92.4013C357.812 93.513 356.368 94.0906 354.679 94.0906C351.416 94.0906 348.976 91.766 348.976 88.5751V88.604Z" fill="black"/>
<path d="M364.483 88.604C364.483 85.4419 366.923 83.0885 370.229 83.0885C373.536 83.0885 375.947 85.4275 375.947 88.604C375.947 91.7804 373.507 94.1194 370.229 94.1194C366.952 94.1194 364.483 91.766 364.483 88.604ZM374.402 88.604C374.402 86.2216 372.612 84.4601 370.229 84.4601C367.847 84.4601 366.028 86.2216 366.028 88.604C366.028 90.9863 367.818 92.7478 370.229 92.7478C372.64 92.7478 374.402 90.9863 374.402 88.604Z" fill="black"/>
<path d="M392.176 83.204V93.9895H390.905L384.437 85.9473V93.9895H382.892V83.204H384.148L390.616 91.2462V83.204H392.161H392.176Z" fill="black"/>
<path d="M399.034 92.7622L399.597 91.5638C400.391 92.2858 401.763 92.8055 403.149 92.8055C405.011 92.8055 405.805 92.0836 405.805 91.1451C405.805 88.5173 399.279 90.1777 399.279 86.1639C399.279 84.5034 400.579 83.0885 403.409 83.0885C404.665 83.0885 405.979 83.4206 406.874 84.0414L406.369 85.2687C405.43 84.6623 404.362 84.3879 403.409 84.3879C401.575 84.3879 400.795 85.1532 400.795 86.0917C400.795 88.7195 407.321 87.0735 407.321 91.0296C407.321 92.6756 405.993 94.0906 403.149 94.0906C401.503 94.0906 399.886 93.5419 399.019 92.7333L399.034 92.7622Z" fill="black"/>
<path d="M416.187 84.5468H412.49V83.204H421.399V84.5468H417.703V93.9895H416.172V84.5468H416.187Z" fill="black"/>
<path d="M434.899 93.9895L432.574 90.6831C432.358 90.6975 432.127 90.712 431.896 90.712H429.239V93.9895H427.694V83.204H431.896C434.697 83.204 436.4 84.619 436.4 86.958C436.4 88.6184 435.534 89.8168 434.033 90.3654L436.588 93.9895H434.913H434.899ZM434.856 86.958C434.856 85.4131 433.83 84.5468 431.852 84.5468H429.239V89.3981H431.852C433.83 89.3981 434.856 88.5029 434.856 86.958Z" fill="black"/>
<path d="M443.418 89.3403V83.204H444.962V89.2681C444.962 91.6505 446.06 92.7333 447.995 92.7333C449.929 92.7333 451.041 91.6505 451.041 89.2681V83.204H452.528V89.3403C452.528 92.4734 450.824 94.1194 447.966 94.1194C445.107 94.1194 443.403 92.4734 443.403 89.3403H443.418Z" fill="black"/>
<path d="M459.415 88.604C459.415 85.4131 461.855 83.0885 465.133 83.0885C466.793 83.0885 468.237 83.6516 469.233 84.7633L468.237 85.7307C467.4 84.85 466.389 84.4457 465.205 84.4457C462.765 84.4457 460.975 86.2072 460.975 88.5895C460.975 90.9719 462.779 92.7333 465.205 92.7333C466.389 92.7333 467.414 92.3146 468.237 91.4339L469.233 92.4013C468.252 93.513 466.808 94.0906 465.118 94.0906C461.855 94.0906 459.415 91.766 459.415 88.5751V88.604Z" fill="black"/>
<path d="M474.937 88.604C474.937 85.4131 477.377 83.0885 480.654 83.0885C482.315 83.0885 483.758 83.6516 484.755 84.7633L483.758 85.7307C482.921 84.85 481.91 84.4457 480.726 84.4457C478.286 84.4457 476.496 86.2072 476.496 88.5895C476.496 90.9719 478.301 92.7333 480.726 92.7333C481.91 92.7333 482.935 92.3146 483.758 91.4339L484.755 92.4013C483.773 93.513 482.329 94.0906 480.64 94.0906C477.377 94.0906 474.937 91.766 474.937 88.5751V88.604Z" fill="black"/>
<path d="M491.555 83.204H493.1V93.9895H491.555V83.204Z" fill="black"/>
<path d="M500.074 88.604C500.074 85.4419 502.514 83.0885 505.82 83.0885C509.127 83.0885 511.538 85.4275 511.538 88.604C511.538 91.7804 509.098 94.1194 505.82 94.1194C502.543 94.1194 500.074 91.766 500.074 88.604ZM509.993 88.604C509.993 86.2216 508.203 84.4601 505.82 84.4601C503.438 84.4601 501.619 86.2216 501.619 88.604C501.619 90.9863 503.409 92.7478 505.82 92.7478C508.232 92.7478 509.993 90.9863 509.993 88.604ZM506.759 80.3307H508.636L506.051 82.3377H504.665L506.759 80.3307Z" fill="black"/>
<path d="M527.767 83.204V93.9895H526.496L520.028 85.9473V93.9895H518.483V83.204H519.739L526.207 91.2462V83.204H527.752H527.767Z" fill="black"/>
<path d="M353 51.2894L363 45V69H353V51.2894Z" fill="black"/>
<path d="M432.984 68.242L434 69H419.156L414.948 65.8964L414.848 65.8249L376 37.1059L384.073 32L432.984 68.242Z" fill="black"/>
<defs>
<linearGradient id="paint0_linear_4_756" x1="393.5" y1="0" x2="393.5" y2="69" gradientUnits="userSpaceOnUse">
<stop stop-color="#B8F300"/>
<stop offset="1" stop-color="#88B400"/>
</linearGradient>
<linearGradient id="paint1_linear_4_756" x1="301" y1="0" x2="301" y2="70" gradientUnits="userSpaceOnUse">
<stop stop-color="#B8F300"/>
<stop offset="1" stop-color="#88B400"/>
</linearGradient>
</defs>
</svg>
