<svg width="529" height="70" viewBox="0 0 529 70" fill="none" xmlns="http://www.w3.org/2000/svg">
<path d="M508.95 0H461.845C452.616 0 445.77 6.86549 443.675 14.9923C443.244 16.6979 443.014 18.4608 443.014 20.2238C443 20.2811 443 20.3385 443 20.3958V46.9547C443 50.9106 443.746 54.5512 445.153 57.6614C448.267 64.6416 454.683 69.0848 463.51 68.9988H509.839C521.608 68.9414 529 62.0473 529 48.431V20.2238C529 8.42777 523.015 0 508.95 0ZM519.025 46.9547C519.025 46.9547 519.025 48.2303 519.025 49.0043C518.81 55.4971 516.255 59.969 507.572 59.969H462.117C456.908 59.1521 453.291 56.0848 452.946 47.1124V46.9547H452.975V20.3384C453.477 14.7056 457.855 9.04408 463.624 8.4851C471.92 8.4851 496.233 8.49945 502.821 8.49945C512.681 8.49945 518.982 10.1047 519.025 21.7861V46.9547Z" fill="white"/>
<path d="M85.8733 48.237C85.8733 62.2653 78.9797 69 66.4066 69H16.0561C10.2031 69 0 63.6265 0 47.9647H9.85621C9.85621 55.5879 13.4403 59.9583 18.9176 59.9583H67.5916C74.384 59.4281 75.8003 54.0546 75.8003 48.0937C75.8003 44.1675 73.9215 38.2351 66.5222 38.1922L38.0808 38.1205C34.0776 38.1635 29.3518 38.2925 24.5972 38.0489C21.7935 37.9056 18.9609 37.619 16.2873 37.1175C6.60453 35.2977 0.0144519 30.5547 0.0144519 18.3175C0.0144519 6.81115 6.46001 2.24014 16.2873 0.635262C17.8048 0.391665 19.3656 0.205386 20.9553 0.0764225H64.6723C67.6494 0.0764225 68.5165 -0.0955282 70.193 0.0764225C81.162 1.20843 86.8271 8.33006 85.9022 20.5672H75.728C75.8148 13.2307 74.4418 8.48767 66.5655 8.48767H19.6257C9.65388 8.48767 9.85621 17.3431 9.85621 19.3492C9.85621 23.1895 13.7582 28.391 20.5651 28.9355H67.2448C72.2018 29.1648 85.8877 32.3172 85.8877 48.2083L85.8733 48.237Z" fill="white"/>
<path d="M432.977 68.2386L434 69H419.051L414.813 65.8826L414.712 65.8107L375.589 36.9638L374.479 36.1449H363.033V69H353V0L363.033 0.0287382H363.105L363.076 27.2236H376.036L419.383 0.172407L419.498 0.0862145H434L397.025 23.273L384.44 31.3754L383.719 31.8351L432.977 68.2386Z" fill="url(#paint0_linear_4_759)"/>
<path d="M249 69H236.944C236.814 68.8712 179.97 9.03298 179.97 9.03298C179.45 8.47469 178.526 8.2886 177.876 8.48902V66.051C177.876 67.0674 177.861 68.0266 177.847 68.9571L175.97 69H168.072C168.072 69 168.014 68.8855 168 68.8139V0.0286368L185.37 0C186.481 0.143154 187.102 1.15955 187.983 2.133C202.97 18.5241 223.848 41.1996 239.124 57.2757V0.0286368H248.986C248.986 0.372205 249 69 249 69Z" fill="white"/>
<path d="M326.151 69.9855H278.976C278.79 69.9565 260.826 70.9565 258.115 54.1304C258.072 53.9565 258.043 51.5217 258 51.3333V18.942C258.99 5.47825 267.814 0 275.576 0H328.39C337.414 0.130435 343.986 8.52174 343.813 20.6087L334.157 20.6956C333.225 13.5652 331.991 9.07245 323.54 8.52172C323.526 8.52172 283.252 8.52172 278.933 8.52172C272.491 8.52172 267.828 12.1884 267.828 19.2609V50.8261C267.67 56.3913 273.625 60.7246 279.278 60.7246L323.468 60.7536C330.025 60.7826 333.871 56.7971 333.871 45.058H298.604V35.6087H343.957L344 45.058V46.1739C343.914 58.5652 340.212 70 326.18 70L326.151 69.9855Z" fill="url(#paint1_linear_4_759)"/>
<path d="M104.865 8.69703L104.822 29.3705L159 29.3994V38.6743H104.851L104.879 60.8214C114.473 60.8214 154.146 60.8214 159 60.8214V69.9807C148.022 70.0241 105.165 69.9807 95 69.9807V0.216695L158.914 0L159 0.274494V8.48032L104.865 8.69703Z" fill="white"/>
<path d="M353 51.2894L363 45V69H353V51.2894Z" fill="white"/>
<path d="M432.984 68.242L434 69H419.156L414.948 65.8964L414.848 65.8249L376 37.1059L384.073 32L432.984 68.242Z" fill="white"/>
<defs>
<linearGradient id="paint0_linear_4_759" x1="393.5" y1="0" x2="393.5" y2="69" gradientUnits="userSpaceOnUse">
<stop stop-color="#B8F300"/>
<stop offset="1" stop-color="#88B400"/>
</linearGradient>
<linearGradient id="paint1_linear_4_759" x1="301" y1="0" x2="301" y2="70" gradientUnits="userSpaceOnUse">
<stop stop-color="#B8F300"/>
<stop offset="1" stop-color="#88B400"/>
</linearGradient>
</defs>
</svg>
