<svg width="3004" height="535" viewBox="0 0 3004 535" fill="none" xmlns="http://www.w3.org/2000/svg">
<path d="M2868.98 101.72C2947.41 101.72 3003.79 147.065 3003.79 247.559V436.293H2908.19V262.266C2908.19 208.955 2884.29 184.444 2845.69 184.444C2802.8 184.444 2772.77 212.019 2772.77 270.845V436.293H2677.18V262.266C2677.18 208.955 2654.51 184.444 2614.68 184.444C2572.39 184.444 2542.37 212.019 2542.37 270.845V436.293H2446.78V106.622H2538.08V144.614C2562.59 116.426 2599.36 101.72 2641.64 101.72C2687.59 101.72 2726.81 119.49 2750.1 155.644C2776.45 121.941 2819.34 101.72 2868.98 101.72Z" fill="white"/>
<path d="M2262.62 106.621H2358.21V436.292H2267.52V397.075C2242.4 425.875 2205.63 441.194 2165.19 441.194C2082.47 441.194 2024.25 394.623 2024.25 292.903V106.621H2119.85V278.81C2119.85 333.959 2144.36 358.47 2186.64 358.47C2230.76 358.47 2262.62 330.282 2262.62 269.618V106.621Z" fill="white"/>
<path d="M1946.7 352.957L1972.43 420.362C1952.83 434.456 1924.03 441.196 1894.61 441.196C1816.79 441.196 1771.44 401.366 1771.44 322.931V187.508H1720.58V113.976H1771.44V33.7026H1867.04V113.976H1949.15V187.508H1867.04V321.705C1867.04 349.893 1882.36 365.212 1908.09 365.212C1922.19 365.212 1936.28 360.923 1946.7 352.957Z" fill="white"/>
<path d="M1536.5 101.72C1614.32 101.72 1673.15 147.065 1673.15 247.559V436.293H1577.56V262.266C1577.56 208.955 1553.05 184.444 1510.77 184.444C1464.81 184.444 1431.72 212.631 1431.72 273.296V436.293H1336.13V106.622H1427.43V145.227C1453.17 117.039 1491.77 101.72 1536.5 101.72Z" fill="white"/>
<path d="M1090.9 101.72C1191.4 101.72 1249.61 148.29 1249.61 248.172V436.293H1160.15V395.238C1142.38 425.263 1108.06 441.195 1059.65 441.195C982.442 441.195 936.484 398.301 936.484 341.314C936.484 283.1 977.54 242.657 1078.03 242.657H1154.02C1154.02 201.602 1129.51 177.703 1078.03 177.703C1043.11 177.703 1006.95 189.346 983.055 208.342L948.74 141.55C984.893 115.813 1038.2 101.72 1090.9 101.72ZM1083.55 376.854C1115.41 376.854 1142.99 362.148 1154.02 332.122V298.42H1088.45C1043.72 298.42 1029.63 314.964 1029.63 337.024C1029.63 360.922 1049.85 376.854 1083.55 376.854Z" fill="white"/>
<path d="M773.778 106.621H869.37V436.292H778.68V397.075C753.556 425.875 716.79 441.194 676.347 441.194C593.623 441.194 535.409 394.623 535.409 292.903V106.621H631.002V278.81C631.002 333.959 655.513 358.47 697.794 358.47C741.913 358.47 773.778 330.282 773.778 269.618V106.621Z" fill="white"/>
<path d="M446.711 429.553L490.83 482.252C462.643 516.567 422.2 534.95 375.016 534.95C311.288 534.95 266.556 511.665 200.376 441.809C82.7242 427.102 0 338.25 0 221.823C0 94.3669 99.2691 0 234.692 0C369.502 0 469.383 93.7541 469.383 221.823C469.383 322.318 407.493 401.979 316.19 431.392C337.025 453.451 355.408 461.417 376.855 461.417C403.204 461.417 426.489 451 446.711 429.553ZM100.495 221.823C100.495 303.322 158.095 359.084 234.692 359.084C311.288 359.084 368.889 303.322 368.889 221.823C368.889 140.325 311.288 84.5626 234.692 84.5626C158.095 84.5626 100.495 140.325 100.495 221.823Z" fill="white"/>
</svg>
